<?xml version="1.0" encoding="UTF-8"?><svg id="Layer_2" xmlns="http://www.w3.org/2000/svg" viewBox="0 0 374.63 193.69"><defs><style>.cls-1{fill:#fff;}.cls-2{fill:#1b4068;}</style></defs><g id="Ebene_1"><path class="cls-2" d="m29.63,0L8.33,34.57h39.84v158.78h36.54V0H29.63Z"/><path class="cls-2" d="m196.34.46c-53.96,0-97.65,43.72-97.65,97.68,0,39.93,23.96,74.28,58.31,89.4l29.94-29.97c-28.79-4.49-50.78-29.41-50.78-59.43,0-33.25,26.92-60.2,60.18-60.2,30.02,0,54.94,22.01,59.43,50.8l29.97-29.97C270.59,24.41,236.27.46,196.34.46Z"/><path class="cls-2" d="m251.21,93.85c-.09,0-.17-.03-.24-.1-.13-.13-.13-.34,0-.47l41.4-41.4c.13-.13.34-.13.47,0,.13.13.13.34,0,.47l-41.4,41.4c-.06.06-.15.1-.24.1Z"/><path class="cls-2" d="m151.39,193.69c-.09,0-.17-.03-.24-.1-.13-.13-.13-.34,0-.47l42.57-42.57c.13-.13.34-.13.47,0,.13.13.13.34,0,.47l-42.56,42.57c-.06.07-.15.1-.24.1Z"/><path class="cls-1" d="m150.23,99.3v5.13h-2.08v-5.17l-4.89-7.99h2.42l3.52,5.9,3.54-5.9h2.42l-4.92,8.03Z"/><path class="cls-1" d="m165.99,102.56v1.87h-8.86v-13.16h8.82v1.89h-6.76v4.16h5.94v1.87h-5.94v3.37h6.8Z"/><path class="cls-1" d="m176.45,101.73h-6.23l-1.22,2.7h-2.21l6.29-13.35h.51l6.29,13.35h-2.21l-1.22-2.7Zm-.79-1.74l-2.32-5.13-2.34,5.13h4.66Z"/><path class="cls-1" d="m186.07,100.42h-2.55v4.01h-2.06v-13.16h4.85c2.9,0,4.89,1.89,4.89,4.57,0,2.04-1.14,3.61-2.94,4.27l3.31,4.32h-2.45l-3.05-4.01Zm-2.55-1.89h2.66c1.7,0,2.88-1.1,2.88-2.71s-1.16-2.66-2.88-2.66h-2.66v5.37Z"/><path class="cls-1" d="m192.32,103.04l.97-1.72c.82.82,2.51,1.46,4.03,1.46s2.4-.6,2.4-1.67-.75-1.63-2.81-2.27c-2.81-.86-3.95-2.02-3.95-3.99,0-2.3,1.78-3.76,4.59-3.76,1.5,0,2.75.39,4.04,1.29l-.95,1.7c-1.01-.81-2.02-1.18-3.2-1.18-1.55,0-2.42.67-2.42,1.87,0,1.1.67,1.57,3.07,2.32,2.58.8,3.69,1.93,3.69,3.84,0,2.27-1.76,3.65-4.55,3.65-2,0-3.89-.6-4.91-1.55Z"/><path class="cls-1" d="m207.99,97.87c0-3.82,2.88-6.78,6.89-6.78s6.89,2.96,6.89,6.78-2.9,6.72-6.89,6.72-6.89-2.9-6.89-6.72Zm11.7,0c0-2.81-2.06-4.89-4.81-4.89s-4.81,2.08-4.81,4.89,2.02,4.83,4.81,4.83,4.81-2.04,4.81-4.83Z"/><path class="cls-1" d="m226.4,93.16v4.34h5.64v1.89h-5.64v5.04h-2.06v-13.16h8.67v1.89h-6.61Z"/><path class="cls-1" d="m160.39,120.69c-.01.96-.48,1.83-1.4,2.61-.92.78-2.2,1.17-3.84,1.17-.69,0-1.33-.1-1.93-.29s-1.11-.53-1.55-1.02c-.43-.49-.64-1.08-.61-1.78.03-.49.22-.92.58-1.28.36-.36.83-.54,1.42-.54.34,0,.63.07.85.2.22.13.33.26.33.38,0,.04-.06.21-.17.49-.11.29-.17.54-.19.76-.03.34.08.65.31.93.23.27.58.42,1.03.43.48.03.9-.1,1.25-.38.35-.28.52-.65.5-1.1,0-.26-.11-.55-.34-.86-.23-.31-.49-.62-.8-.94-.31-.32-.62-.65-.94-.99-.32-.34-.58-.74-.8-1.2-.22-.45-.33-.92-.33-1.4,0-.65.26-1.21.79-1.7.53-.49,1.19-.73,1.99-.73.4,0,.78.06,1.14.19s.64.25.84.38c.19.13.3.24.33.32.07.15,0,.25-.19.31-.41-.01-.75.07-1.01.26-.26.19-.39.45-.37.79.01.34.13.68.35,1.01.22.33.48.63.78.91.3.28.6.56.9.85s.55.63.75,1.01c.21.39.31.79.31,1.22Z"/><path class="cls-1" d="m177.85,122.57c.11.06.16.14.14.25-.03.26-.28.6-.75,1-.48.41-1.04.61-1.69.61s-1.17-.2-1.51-.6-.47-.96-.37-1.67l.56-4.72c.08-.62.05-1.06-.1-1.33s-.4-.39-.73-.36c-.47.03-.94.4-1.39,1.1-.45.71-.74,1.55-.87,2.54l-.56,4.62s-.01.05-.03.07c-.02.02-.04.03-.05.03l-.04.02c-.42.1-.92.15-1.49.15-.45,0-.94-.05-1.47-.14-.05-.05-.08-.09-.08-.1l.82-6.6c.08-.61.05-1.05-.11-1.32-.15-.27-.4-.4-.73-.37-.47.03-.94.39-1.39,1.08s-.74,1.54-.87,2.54l-.59,4.64s-.01.05-.03.07c-.02.02-.04.03-.05.03l-.04.02c-.39.1-.88.15-1.47.15-.48,0-.98-.05-1.53-.14-.05-.05-.08-.09-.08-.1.33-2.23.63-4.53.91-6.91.07-.59.04-1-.09-1.23-.13-.23-.36-.41-.69-.55-.1-.05-.14-.14-.14-.25.03-.26.28-.59.75-1,.47-.41,1.03-.61,1.68-.61.56,0,1,.16,1.3.48.3.32.47.77.5,1.33,0,.14-.01.38-.04.74h.06c.91-1.68,2.06-2.53,3.45-2.56.76-.01,1.36.2,1.81.64.45.44.68,1.07.69,1.9h.06c.44-.81.96-1.43,1.57-1.86.61-.43,1.24-.65,1.9-.68.85-.01,1.51.25,1.97.81s.63,1.35.51,2.39l-.54,4.06c-.06.43-.04.77.04,1.03.08.26.18.43.29.51.11.08.28.17.52.27Z"/><path class="cls-1" d="m189.2,120.75c-.06.43-.04.77.04,1.03.08.26.18.43.29.52.11.08.28.17.52.27.11.07.16.15.14.25-.04.34-.31.7-.8,1.06-.49.36-1.04.55-1.63.55s-1.1-.19-1.43-.57c-.34-.38-.5-.92-.48-1.62h-.04c-.39.69-.89,1.22-1.51,1.6s-1.29.57-2,.57c-1.22,0-2.15-.54-2.78-1.61-.63-1.07-.85-2.38-.64-3.94.19-1.47.73-2.73,1.63-3.77.89-1.04,1.97-1.56,3.22-1.55,1.4,0,2.36.61,2.89,1.83h.06l.33-1.46c0-.05.03-.1.1-.12.52-.08,1-.12,1.42-.12.6,0,1.1.04,1.48.12.07.03.1.07.1.12-.33,2.36-.63,4.65-.91,6.85Zm-5.44,1.44c.62,0,1.17-.32,1.65-.96.48-.64.78-1.4.89-2.28.12-.93.03-1.72-.28-2.36-.31-.64-.79-.96-1.43-.96-.59,0-1.12.3-1.58.89-.46.59-.75,1.35-.88,2.29-.14,1.02-.05,1.83.26,2.45.31.62.77.93,1.37.93Z"/><path class="cls-1" d="m197.74,118.38s.03-.11.08-.25c.05-.14.11-.3.16-.48.06-.19.09-.35.1-.51.03-.3-.01-.55-.11-.74s-.29-.28-.57-.27c-.48.03-.93.41-1.34,1.15-.41.74-.69,1.64-.82,2.68l-.5,4.04s-.01.05-.03.07c-.02.02-.04.03-.05.03l-.04.02c-.39.1-.88.14-1.48.14-.48,0-1-.05-1.55-.14-.04-.05-.06-.09-.06-.1l.91-6.91c.07-.59.03-1-.1-1.23-.14-.23-.36-.41-.68-.55-.11-.05-.17-.14-.17-.25.04-.27.3-.61.77-1.01.47-.4,1.03-.6,1.68-.6.59,0,1.03.19,1.33.57.3.38.43.91.4,1.6,0,.08-.01.22-.03.4-.02.19-.04.33-.05.42h.08c.34-.91.82-1.63,1.44-2.17s1.29-.81,2.02-.83c.71,0,1.26.23,1.63.7.37.47.51,1.08.41,1.84-.1.74-.42,1.38-.97,1.92s-1.13.8-1.75.8c-.21,0-.38-.03-.53-.08-.14-.05-.21-.15-.2-.29Z"/><path class="cls-1" d="m206.98,122.32c.16,0,.36-.02.6-.07.23-.05.38-.07.43-.07.15,0,.21.08.19.23-.06.41-.42.85-1.08,1.32-.67.47-1.43.7-2.29.7-1.01,0-1.72-.32-2.14-.95-.42-.63-.55-1.53-.4-2.7l.66-5.57h-1.07c-.06,0-.08-.03-.08-.08l.16-1.22c.01-.05.05-.09.1-.1h1.05l.3-2.54c0-.07.03-.1.1-.1.52-.11,1.02-.17,1.52-.17.52,0,1.02.05,1.5.16.05,0,.08.04.08.12l-.32,2.52h2.47l.06.06v.04l-.17,1.2c0,.06-.03.09-.08.1h-2.47l-.56,4.45c-.11.99-.06,1.68.13,2.08.2.39.63.59,1.29.59Z"/><path class="cls-1" d="m219.25,122.32c.16,0,.36-.02.6-.07.23-.05.38-.07.43-.07.15,0,.21.08.19.23-.06.41-.42.85-1.08,1.32-.67.47-1.43.7-2.29.7-1.01,0-1.72-.32-2.14-.95-.42-.63-.55-1.53-.4-2.7l.66-5.57h-1.07c-.06,0-.08-.03-.08-.08l.16-1.22c.01-.05.05-.09.1-.1h1.05l.3-2.54c0-.07.03-.1.1-.1.52-.11,1.02-.17,1.52-.17.52,0,1.02.05,1.5.16.05,0,.08.04.08.12l-.32,2.52h2.47l.06.06v.04l-.17,1.2c0,.06-.03.09-.08.1h-2.47l-.56,4.45c-.11.99-.06,1.68.13,2.08.2.39.63.59,1.29.59Z"/><path class="cls-1" d="m230.71,121.08c.12,0,.17.08.12.23-.03.22-.15.49-.38.81-.23.32-.53.66-.92,1.01-.39.35-.89.65-1.53.9-.63.25-1.3.37-2,.37-1.61,0-2.85-.49-3.72-1.47-.87-.98-1.21-2.3-1.02-3.95.21-1.64.87-2.95,2-3.95,1.13-1,2.5-1.5,4.1-1.52,1.4-.01,2.45.31,3.14.97.69.66.99,1.4.88,2.23-.14,1.14-.68,1.98-1.63,2.52-.95.54-1.98.8-3.09.8-.33,0-.66-.02-1-.06-.34-.04-.63-.09-.88-.14-.25-.05-.38-.08-.39-.08-.01.76.23,1.36.74,1.81.51.45,1.16.68,1.96.68.63,0,1.22-.1,1.75-.29s.96-.38,1.27-.58c.31-.19.51-.29.59-.29Zm-3.73-5.84c-.65,0-1.2.31-1.65.92-.45.61-.74,1.32-.85,2.13.36.07.74.1,1.13.1.74,0,1.37-.16,1.88-.48.51-.32.79-.75.85-1.29.06-.38-.03-.71-.27-.98s-.6-.4-1.09-.4Z"/><path class="cls-1" d="m241.86,116.81c-.06.48-.24.89-.57,1.23-.32.34-.77.51-1.33.51-.33,0-.62-.08-.86-.23-.24-.15-.35-.3-.32-.45,0-.08.03-.24.09-.48.06-.24.11-.43.13-.57.05-.49-.01-.89-.2-1.2-.19-.3-.49-.45-.92-.45-.58,0-1.12.34-1.62,1.01-.5.67-.81,1.47-.92,2.39-.14,1.03.03,1.88.51,2.56.47.67,1.25,1.01,2.34,1.01.51,0,1-.09,1.46-.26s.86-.34,1.17-.52c.31-.17.51-.26.61-.26.15,0,.21.08.19.23-.07.54-.57,1.18-1.52,1.94s-2.06,1.13-3.35,1.13c-1.64,0-2.87-.52-3.69-1.57-.83-1.04-1.13-2.37-.93-3.98.19-1.55.85-2.83,1.98-3.84,1.13-1,2.5-1.5,4.1-1.5,1.2,0,2.13.33,2.79.99.67.66.94,1.43.83,2.31Z"/><path class="cls-1" d="m242.63,124.03c.06-.53.18-1.45.33-2.76s.4-3.26.71-5.84.58-4.82.81-6.7c.03-.06.07-.09.12-.11.5-.1.98-.14,1.45-.14.58,0,1.09.05,1.51.14.04.04.06.08.06.1l-.89,7.3h.06c.46-.82,1.03-1.45,1.73-1.89s1.38-.66,2.06-.67c.87-.01,1.53.25,1.98.8s.61,1.35.49,2.41c-.05.38-.13,1.02-.24,1.93s-.2,1.62-.26,2.13c-.05.43-.04.77.03,1.03.08.26.17.43.28.52.11.08.28.17.52.27.11.06.16.14.14.25-.03.26-.27.59-.74,1-.47.41-1.02.61-1.67.61s-1.16-.2-1.51-.6c-.35-.4-.48-.96-.38-1.67l.58-4.72c.12-1.15-.19-1.72-.94-1.69-.52.01-1.04.37-1.56,1.06-.52.69-.85,1.53-.97,2.52l-.57,4.68c0,.06-.03.09-.08.1v.02h-.02c-.42.1-.92.15-1.51.15-.46,0-.94-.05-1.45-.14-.05-.05-.08-.09-.08-.1Z"/><path class="cls-1" d="m254.84,124.03c.32-2.13.62-4.45.91-6.95.07-.59.04-1-.09-1.23-.13-.23-.36-.41-.69-.55-.1-.06-.14-.14-.14-.25.03-.26.28-.59.76-1,.48-.41,1.04-.61,1.69-.61.58,0,1.02.17,1.32.51s.45.79.45,1.35c0,.14-.01.37-.04.7h.06c.45-.82,1.03-1.45,1.74-1.89.71-.43,1.41-.66,2.1-.67.86-.01,1.51.25,1.96.81.45.55.61,1.35.49,2.39-.1.88-.27,2.25-.53,4.12-.05.43-.04.77.04,1.03.08.26.18.44.3.53.12.09.29.18.51.26.11.06.16.14.14.25-.03.27-.28.62-.75,1.02s-1.04.61-1.69.61-1.17-.2-1.51-.61c-.35-.41-.47-.97-.37-1.68l.57-4.78c.08-.61.03-1.04-.14-1.31-.18-.27-.43-.4-.76-.38-.51.01-1.02.37-1.54,1.06-.51.69-.83,1.54-.96,2.55l-.58,4.7s0,.05-.03.07c-.02.02-.04.03-.05.03l-.04.02c-.4.1-.89.14-1.48.14-.48,0-1-.05-1.55-.14-.05-.05-.08-.09-.08-.1Z"/><path class="cls-1" d="m268.88,124.42c-.66,0-1.15-.2-1.49-.6-.34-.4-.47-.96-.39-1.67l1.03-8.27c0-.05.03-.09.08-.1.51-.1,1-.14,1.48-.14.62,0,1.12.05,1.52.14.04.05.06.09.06.1l-.86,6.87c-.05.43-.04.77.04,1.03s.18.43.29.52c.11.08.28.17.52.27.11.06.16.14.14.25-.03.26-.28.6-.75,1-.47.41-1.03.61-1.67.61Zm1-12.31c-.55,0-1-.17-1.36-.5-.36-.33-.51-.73-.45-1.2s.3-.87.74-1.21c.44-.34.93-.5,1.48-.5s1.02.17,1.38.5c.36.34.51.74.45,1.21-.06.47-.3.87-.74,1.2-.44.33-.94.5-1.51.5Z"/><path class="cls-1" d="m282.24,116.81c-.05.48-.24.89-.57,1.23-.32.34-.77.51-1.33.51-.33,0-.62-.08-.86-.23-.24-.15-.35-.3-.32-.45,0-.08.03-.24.09-.48.06-.24.11-.43.13-.57.05-.49-.01-.89-.2-1.2-.19-.3-.49-.45-.92-.45-.58,0-1.12.34-1.62,1.01-.5.67-.81,1.47-.92,2.39-.14,1.03.03,1.88.5,2.56.47.67,1.25,1.01,2.34,1.01.51,0,1-.09,1.46-.26.47-.17.86-.34,1.17-.52.31-.17.51-.26.61-.26.15,0,.21.08.19.23-.07.54-.57,1.18-1.52,1.94-.94.76-2.06,1.13-3.35,1.13-1.64,0-2.87-.52-3.69-1.57-.83-1.04-1.13-2.37-.93-3.98.19-1.55.85-2.83,1.98-3.84,1.13-1,2.5-1.5,4.1-1.5,1.2,0,2.13.33,2.79.99.67.66.94,1.43.83,2.31Z"/><path class="cls-1" d="m293.33,120.75c-.05.43-.04.77.04,1.03.08.26.18.43.29.52.11.08.28.17.52.27.11.07.16.15.14.25-.04.34-.31.7-.8,1.06-.5.36-1.04.55-1.63.55s-1.1-.19-1.43-.57-.5-.92-.48-1.62h-.04c-.38.69-.89,1.22-1.5,1.6-.62.38-1.29.57-2,.57-1.22,0-2.15-.54-2.78-1.61-.63-1.07-.84-2.38-.64-3.94.19-1.47.74-2.73,1.63-3.77.89-1.04,1.97-1.56,3.22-1.55,1.4,0,2.36.61,2.89,1.83h.06l.33-1.46c0-.05.03-.1.1-.12.52-.08,1-.12,1.42-.12.6,0,1.1.04,1.48.12.07.03.1.07.1.12-.33,2.36-.63,4.65-.91,6.85Zm-5.44,1.44c.62,0,1.17-.32,1.65-.96s.78-1.4.89-2.28c.12-.93.03-1.72-.28-2.36s-.79-.96-1.43-.96c-.59,0-1.12.3-1.58.89-.46.59-.75,1.35-.88,2.29-.14,1.02-.05,1.83.26,2.45s.77.93,1.37.93Z"/><path class="cls-1" d="m297.41,124.42c-.66,0-1.16-.2-1.5-.6s-.47-.96-.39-1.67l1.63-13.42c.03-.05.07-.09.12-.1.51-.1,1.01-.14,1.5-.14.56,0,1.06-.01,1.48-.04.05-.01.08-.02.06-.03l-1.5,12.34c-.05.43-.04.77.04,1.03.08.26.18.43.29.52s.28.17.52.27c.11.06.16.14.15.25-.03.26-.28.6-.74,1-.47.41-1.02.61-1.67.61Z"/><path class="cls-1" d="m312.05,118.38s.03-.11.08-.25c.05-.14.11-.3.17-.48s.09-.35.1-.51c.03-.3-.01-.55-.11-.74-.1-.19-.29-.28-.57-.27-.48.03-.93.41-1.34,1.15-.41.74-.69,1.64-.82,2.68l-.5,4.04s0,.05-.03.07c-.02.02-.04.03-.05.03l-.04.02c-.38.1-.88.14-1.48.14-.48,0-1-.05-1.55-.14-.04-.05-.06-.09-.06-.1l.91-6.91c.07-.59.03-1-.1-1.23-.14-.23-.37-.41-.68-.55-.11-.05-.17-.14-.17-.25.04-.27.3-.61.77-1.01.47-.4,1.03-.6,1.68-.6.59,0,1.03.19,1.33.57.29.38.43.91.4,1.6,0,.08,0,.22-.03.4s-.04.33-.05.42h.08c.34-.91.83-1.63,1.44-2.17.62-.54,1.29-.81,2.02-.83.71,0,1.26.23,1.63.7.37.47.51,1.08.41,1.84-.1.74-.42,1.38-.97,1.92-.55.54-1.13.8-1.75.8-.21,0-.38-.03-.53-.08-.14-.05-.21-.15-.2-.29Z"/><path class="cls-1" d="m325.19,121.08c.12,0,.17.08.12.23-.03.22-.15.49-.38.81-.23.32-.53.66-.92,1.01s-.89.65-1.53.9c-.63.25-1.3.37-2,.37-1.61,0-2.85-.49-3.72-1.47s-1.21-2.3-1.02-3.95c.21-1.64.87-2.95,2-3.95,1.13-1,2.5-1.5,4.1-1.52,1.4-.01,2.45.31,3.14.97.69.66.99,1.4.88,2.23-.14,1.14-.68,1.98-1.63,2.52s-1.98.8-3.09.8c-.33,0-.66-.02-1-.06-.34-.04-.63-.09-.88-.14-.25-.05-.38-.08-.39-.08-.01.76.23,1.36.74,1.81s1.16.68,1.96.68c.63,0,1.22-.1,1.75-.29s.96-.38,1.27-.58c.31-.19.5-.29.59-.29Zm-3.73-5.84c-.65,0-1.2.31-1.65.92-.45.61-.74,1.32-.84,2.13.36.07.74.1,1.13.1.74,0,1.37-.16,1.88-.48.51-.32.79-.75.85-1.29.05-.38-.03-.71-.27-.98-.23-.27-.6-.4-1.09-.4Z"/><path class="cls-1" d="m335.33,120.69c-.01.96-.48,1.83-1.4,2.61-.92.78-2.2,1.17-3.84,1.17-.69,0-1.33-.1-1.93-.29s-1.11-.53-1.55-1.02c-.43-.49-.64-1.08-.61-1.78.03-.49.22-.92.58-1.28s.83-.54,1.42-.54c.34,0,.62.07.84.2.22.13.33.26.33.38,0,.04-.05.21-.17.49-.11.29-.17.54-.19.76-.03.34.08.65.31.93s.58.42,1.03.43c.48.03.9-.1,1.25-.38s.52-.65.51-1.1c0-.26-.11-.55-.34-.86-.23-.31-.5-.62-.8-.94-.31-.32-.62-.65-.94-.99-.32-.34-.58-.74-.8-1.2s-.33-.92-.33-1.4c0-.65.26-1.21.79-1.7.53-.49,1.19-.73,1.99-.73.4,0,.78.06,1.14.19.36.12.64.25.83.38.19.13.3.24.33.32.07.15,0,.25-.19.31-.41-.01-.75.07-1.01.26-.26.19-.38.45-.37.79.01.34.13.68.35,1.01.22.33.48.63.78.91.3.28.6.56.9.85s.55.63.75,1.01c.21.39.31.79.31,1.22Z"/><path class="cls-1" d="m347.2,113.92c-.11.71-.41,3.02-.88,6.91-.06.41-.05.74.02.99.07.25.16.41.27.49.11.08.27.17.49.27.11.05.16.14.14.25-.03.26-.28.59-.74,1-.47.4-1.03.61-1.68.61-.58,0-1.02-.16-1.32-.48-.3-.32-.46-.76-.49-1.31,0-.33,0-.58.02-.74l-.04-.02c-.46.82-1.04,1.45-1.73,1.89s-1.4.66-2.11.67c-.89.01-1.55-.25-2-.78s-.61-1.33-.49-2.37l.5-4.1c.05-.41.04-.75-.04-1-.08-.25-.18-.42-.29-.51-.11-.08-.28-.17-.52-.25-.11-.04-.16-.13-.14-.27.03-.27.27-.62.74-1.02s1.02-.61,1.67-.61,1.17.2,1.53.61.5.97.4,1.68l-.58,4.7c-.08.59-.03,1.03.16,1.31.19.28.44.42.77.4.51-.03,1.02-.38,1.53-1.06.51-.68.83-1.54.95-2.57l.56-4.66c.03-.08.07-.12.13-.12.59-.11,1.12-.17,1.58-.17s.96.05,1.52.15c.04.04.06.09.06.13Z"/><path class="cls-1" d="m350.28,124.42c-.66,0-1.16-.2-1.5-.6s-.47-.96-.39-1.67l1.63-13.42c.03-.05.07-.09.12-.1.51-.1,1.01-.14,1.5-.14.56,0,1.06-.01,1.48-.04.05-.01.08-.02.06-.03l-1.5,12.34c-.05.43-.04.77.04,1.03.08.26.18.43.29.52s.28.17.52.27c.11.06.16.14.15.25-.03.26-.28.6-.74,1-.47.41-1.02.61-1.67.61Z"/><path class="cls-1" d="m359.16,122.32c.17,0,.36-.02.6-.07.23-.05.38-.07.43-.07.15,0,.21.08.19.23-.06.41-.42.85-1.08,1.32-.67.47-1.43.7-2.29.7-1.01,0-1.72-.32-2.14-.95-.42-.63-.55-1.53-.4-2.7l.67-5.57h-1.07c-.06,0-.08-.03-.08-.08l.17-1.22c.01-.05.05-.09.1-.1h1.05l.3-2.54c0-.07.03-.1.1-.1.52-.11,1.02-.17,1.52-.17.52,0,1.02.05,1.5.16.05,0,.08.04.08.12l-.32,2.52h2.47l.06.06v.04l-.17,1.2c0,.06-.03.09-.08.1h-2.47l-.56,4.45c-.11.99-.06,1.68.13,2.08.2.39.63.59,1.29.59Z"/><path class="cls-1" d="m370,120.69c-.01.96-.48,1.83-1.4,2.61-.92.78-2.2,1.17-3.84,1.17-.69,0-1.33-.1-1.93-.29s-1.11-.53-1.55-1.02c-.43-.49-.64-1.08-.61-1.78.03-.49.22-.92.58-1.28s.83-.54,1.42-.54c.34,0,.62.07.84.2.22.13.33.26.33.38,0,.04-.05.21-.17.49-.11.29-.17.54-.19.76-.03.34.08.65.31.93s.58.42,1.03.43c.48.03.9-.1,1.25-.38s.52-.65.51-1.1c0-.26-.11-.55-.34-.86-.23-.31-.5-.62-.8-.94-.31-.32-.62-.65-.94-.99-.32-.34-.58-.74-.8-1.2s-.33-.92-.33-1.4c0-.65.26-1.21.79-1.7.53-.49,1.19-.73,1.99-.73.4,0,.78.06,1.14.19s.64.25.83.38c.19.13.3.24.33.32.07.15,0,.25-.19.31-.41-.01-.75.07-1.01.26-.26.19-.38.45-.37.79.01.34.13.68.35,1.01.22.33.48.63.78.91.3.28.6.56.9.85s.55.63.75,1.01c.21.39.31.79.31,1.22Z"/><path class="cls-1" d="m374.61,122.5c-.06.54-.3.99-.73,1.35s-.95.55-1.56.55-1.04-.18-1.37-.55c-.34-.36-.48-.81-.42-1.35.07-.52.32-.97.76-1.34.44-.37.94-.56,1.5-.56s1.06.19,1.4.56.48.82.41,1.34Z"/><path class="cls-1" d="m21.29,0L0,34.57h39.84v158.78h36.54V0H21.29Z"/><path class="cls-1" d="m188.01.46c-53.96,0-97.65,43.72-97.65,97.68,0,39.93,23.96,74.28,58.31,89.4l29.94-29.97c-28.79-4.49-50.78-29.41-50.78-59.43,0-33.25,26.92-60.2,60.18-60.2,30.02,0,54.94,22.01,59.43,50.8l29.97-29.97C262.26,24.41,227.94.46,188.01.46Z"/><path class="cls-1" d="m242.87,93.85c-.09,0-.17-.03-.24-.1-.13-.13-.13-.34,0-.47l41.4-41.4c.13-.13.34-.13.47,0,.13.13.13.34,0,.47l-41.4,41.4c-.06.06-.15.1-.24.1Z"/><path class="cls-1" d="m143.05,193.69c-.09,0-.17-.03-.24-.1-.13-.13-.13-.34,0-.47l42.57-42.57c.13-.13.34-.13.47,0,.13.13.13.34,0,.47l-42.56,42.57c-.06.07-.15.1-.24.1Z"/></g></svg>