<?xml version="1.0" encoding="UTF-8"?><svg id="Layer_2" xmlns="http://www.w3.org/2000/svg" viewBox="0 0 109.74 100.29"><defs><style>.cls-1{fill:#fff;}</style></defs><g id="Ebene_1"><path class="cls-1" d="m46.53,37.52c-2.88,2.55-7.89,4.31-12.81,4.31-6.82,0-11.78-4.62-13.68-10.53h39.39c.32-1.65.5-3.35.5-5.09C59.93,11.74,48.2,0,33.72,0S7.5,11.74,7.5,26.22s11.74,26.21,26.22,26.21c7.62,0,14.48-3.26,19.28-8.45l-6.46-6.46M25.22,13.66c2.47-1.93,5.26-2.89,8.37-2.89s6,.96,8.5,2.89c2.5,1.93,4.24,4.47,5.22,7.64h-27.27c.98-3.16,2.7-5.71,5.18-7.64"/><path class="cls-1" d="m76.02,0c-6.38,0-12.22,2.28-16.76,6.06,2.45,3.1,4.34,6.65,5.54,10.51.81-1.09,1.75-2.06,2.85-2.91,2.5-1.93,5.34-2.89,8.5-2.89s5.9.96,8.37,2.89c1.63,1.27,2.93,2.81,3.91,4.61h0s.72,1,1.23,2.93c.01.03.02.06.03.09h0c.32,1.26.56,2.9.45,4.92-.09,1.74-.12,3.44-.44,5.09-1.9,5.91-6.85,10.53-13.68,10.53-4.92,0-9.93-1.76-12.81-4.31l-6.46,6.46c4.79,5.19,11.65,8.45,19.27,8.45,14.48,0,26.22-11.74,26.22-26.21S90.5,0,76.02,0"/><path class="cls-1" d="m18.1,79.11H3.83c.58,3,3.25,4.95,6.36,4.95,2.42,0,4.05-.94,5.31-2.06l1.66,3.03c-1.55,1.34-3.87,2.46-7.19,2.46-5.67,0-9.97-4.01-9.97-9.5s4.08-9.5,9.36-9.5,8.78,3.76,8.78,9.18c0,.4,0,.98-.04,1.44Zm-14.2-2.96h10.51c-.25-2.78-2.31-4.48-4.91-4.48-2.82,0-4.95,1.7-5.6,4.48Z"/><path class="cls-1" d="m40.06,77.99c0,5.38-3.9,9.5-9.1,9.5-2.6,0-4.44-1.01-5.71-2.38v12.15h-3.87v-28.4h3.94l-.25,2.06h.14c1.26-1.37,3.14-2.42,5.74-2.42,5.2,0,9.1,4.12,9.1,9.5Zm-3.9,0c0-3.61-2.38-6-5.71-6-2.53,0-4.26,1.26-5.2,3.14v5.71c.94,1.88,2.67,3.14,5.17,3.14,3.4,0,5.74-2.46,5.74-6Z"/><path class="cls-1" d="m43.34,62.96c0-1.52,1.16-2.6,2.64-2.64,1.44,0,2.67,1.08,2.67,2.64s-1.23,2.67-2.67,2.67-2.64-1.16-2.64-2.67Zm.76,5.89h3.87v18.28h-3.87v-18.28Z"/><path class="cls-1" d="m52.05,78.02c0-5.53,4.19-9.54,9.86-9.54,3.22,0,5.2.98,6.32,1.95l-1.73,3.18c-.94-.87-2.49-1.63-4.59-1.63-3.32,0-6.03,2.46-6.03,6.03s2.49,5.96,6,5.96c2.13,0,3.79-.69,4.77-1.55l1.59,3.07c-1.16.98-3.07,1.99-6.32,1.99-5.82,0-9.86-4.01-9.86-9.47Z"/><path class="cls-1" d="m70.15,78.02c0-5.53,4.34-9.5,9.68-9.5s9.72,4.01,9.72,9.5-4.37,9.47-9.72,9.47-9.68-3.97-9.68-9.47Zm15.5,0c0-3.5-2.67-6.03-5.82-6.03s-5.78,2.53-5.78,6.03,2.67,5.96,5.78,5.96,5.82-2.49,5.82-5.96Z"/><path class="cls-1" d="m109.74,76.36v10.77h-3.83v-10.58c0-2.82-1.59-4.59-4.08-4.59-2.17,0-3.76,1.37-4.52,3.25v11.92h-3.83v-18.28h3.94l-.25,2.02h.11c1.19-1.48,3.03-2.38,5.31-2.38,4.41,0,7.15,3.14,7.15,7.88Z"/><path class="cls-1" d="m50.99,95.61c.07,0,.09.04.07.13-.02.12-.09.27-.21.45-.13.18-.3.37-.51.56-.21.2-.5.36-.85.5-.35.14-.72.21-1.12.21-.9,0-1.59-.27-2.08-.82-.49-.55-.68-1.28-.57-2.2.11-.91.49-1.65,1.12-2.2.63-.56,1.39-.84,2.29-.85.78,0,1.37.17,1.75.54.39.37.55.78.49,1.24-.08.64-.38,1.1-.91,1.4-.53.3-1.1.45-1.72.45-.18,0-.37-.01-.56-.03-.19-.02-.35-.05-.49-.08s-.21-.05-.22-.05c0,.42.13.76.41,1.01.28.25.65.38,1.09.38.35,0,.68-.05.98-.16.3-.11.53-.21.71-.32.17-.11.28-.16.33-.16Zm-2.08-3.25c-.36,0-.67.17-.92.51-.25.34-.41.74-.47,1.19.2.04.41.06.63.06.41,0,.76-.09,1.05-.27.28-.18.44-.42.47-.72.03-.21-.02-.4-.15-.55s-.33-.22-.61-.22Z"/><path class="cls-1" d="m51.98,97.26c.18-1.19.34-2.48.51-3.87.04-.33.02-.56-.05-.68-.07-.13-.2-.23-.39-.3-.05-.03-.08-.08-.08-.14.02-.15.16-.33.43-.56.27-.23.58-.34.94-.34.32,0,.57.09.74.28.17.19.25.44.25.75,0,.08,0,.21-.02.39h.03c.25-.46.58-.81.97-1.05.39-.24.78-.37,1.17-.37.48,0,.84.14,1.09.45.25.31.34.75.27,1.34-.06.49-.15,1.26-.29,2.3-.03.24-.02.43.02.57.05.15.1.24.17.29.07.05.16.1.28.14.06.03.09.08.08.14-.02.15-.16.34-.42.57-.26.23-.58.34-.94.34s-.65-.11-.84-.34c-.19-.23-.26-.54-.21-.94l.32-2.67c.05-.34.02-.58-.08-.73-.1-.15-.24-.22-.43-.21-.28,0-.57.2-.86.59s-.47.86-.53,1.42l-.32,2.62s0,.03-.02.04-.02.02-.03.02h-.02c-.22.07-.5.09-.83.09-.27,0-.56-.03-.86-.08-.03-.03-.05-.05-.05-.06Z"/><path class="cls-1" d="m64.88,91.61l-.7,5.59c-.11.96-.45,1.71-1.01,2.27s-1.29.83-2.2.83c-.41,0-.77-.07-1.09-.2-.32-.13-.57-.29-.74-.48-.17-.19-.29-.38-.37-.56-.08-.19-.11-.35-.1-.49,0-.09.04-.14.13-.14.05,0,.13.04.22.11s.2.16.31.25.28.17.51.25c.23.08.49.12.77.12.51,0,.92-.16,1.23-.48.31-.32.5-.72.55-1.21l.16-1.21h-.02c-.22.38-.51.67-.85.88s-.72.32-1.13.32c-.68,0-1.2-.29-1.54-.87-.34-.58-.46-1.3-.34-2.16.1-.82.4-1.53.9-2.12.5-.59,1.1-.89,1.8-.89.38,0,.71.09.99.27.28.18.48.43.61.75h.03l.18-.82s.02-.05.06-.07c.28-.05.55-.07.8-.07.31,0,.57.02.78.07.04.02.06.04.06.07Zm-3.5,4.61c.35,0,.65-.18.92-.53.27-.35.43-.77.49-1.26.06-.51,0-.94-.17-1.3-.17-.36-.44-.55-.8-.55-.33,0-.62.17-.87.51s-.41.77-.48,1.3c-.08.56-.03,1.01.15,1.34s.43.5.76.5Z"/><path class="cls-1" d="m66.54,97.48c-.37,0-.64-.11-.83-.33s-.26-.53-.22-.93l.57-4.61s.02-.05.05-.06c.28-.05.56-.08.82-.08.34,0,.62.03.85.08.02.03.03.05.03.06l-.48,3.83c-.03.24-.02.43.02.58.05.15.1.24.16.29.06.05.16.1.29.15.06.03.09.08.08.14-.02.15-.15.33-.42.56-.26.23-.57.34-.93.34Zm.56-6.86c-.31,0-.56-.09-.76-.28-.2-.18-.28-.41-.25-.67.03-.26.17-.48.41-.67.25-.19.52-.28.83-.28s.57.09.77.28c.2.19.28.41.25.67-.03.26-.17.48-.41.67-.25.18-.53.28-.84.28Z"/><path class="cls-1" d="m68.78,97.26c.18-1.19.34-2.48.51-3.87.04-.33.02-.56-.05-.68-.07-.13-.2-.23-.39-.3-.05-.03-.08-.08-.08-.14.02-.15.16-.33.43-.56.27-.23.58-.34.94-.34.32,0,.57.09.74.28.17.19.25.44.25.75,0,.08,0,.21-.02.39h.03c.25-.46.58-.81.97-1.05.39-.24.78-.37,1.17-.37.48,0,.84.14,1.09.45.25.31.34.75.27,1.34-.05.49-.15,1.26-.29,2.3-.03.24-.02.43.02.57s.1.24.17.29c.07.05.16.1.28.14.06.03.09.08.08.14-.02.15-.16.34-.42.57-.26.23-.58.34-.94.34s-.65-.11-.84-.34-.26-.54-.21-.94l.32-2.67c.05-.34.02-.58-.08-.73-.1-.15-.24-.22-.43-.21-.28,0-.57.2-.86.59s-.47.86-.53,1.42l-.32,2.62s0,.03-.02.04c-.01.01-.02.02-.03.02h-.02c-.22.07-.5.09-.83.09-.27,0-.56-.03-.86-.08-.03-.03-.05-.05-.05-.06Z"/><path class="cls-1" d="m80.68,95.61c.07,0,.09.04.07.13-.02.12-.09.27-.21.45-.13.18-.3.37-.51.56-.21.2-.5.36-.85.5-.35.14-.72.21-1.12.21-.9,0-1.59-.27-2.08-.82-.49-.55-.68-1.28-.57-2.2.11-.91.49-1.65,1.12-2.2.63-.56,1.39-.84,2.29-.85.78,0,1.37.17,1.75.54.39.37.55.78.49,1.24-.08.64-.38,1.1-.91,1.4-.53.3-1.1.45-1.72.45-.18,0-.37-.01-.56-.03-.19-.02-.35-.05-.49-.08s-.21-.05-.22-.05c0,.42.13.76.41,1.01.28.25.65.38,1.09.38.35,0,.68-.05.98-.16.3-.11.53-.21.71-.32.17-.11.28-.16.33-.16Zm-2.08-3.25c-.36,0-.67.17-.92.51-.25.34-.41.74-.47,1.19.2.04.41.06.63.06.41,0,.76-.09,1.05-.27.28-.18.44-.42.47-.72.03-.21-.02-.4-.15-.55s-.33-.22-.61-.22Z"/><path class="cls-1" d="m86.75,95.61c.07,0,.09.04.07.13-.02.12-.09.27-.21.45-.13.18-.3.37-.51.56-.21.2-.5.36-.85.5-.35.14-.72.21-1.12.21-.9,0-1.59-.27-2.08-.82-.49-.55-.68-1.28-.57-2.2.11-.91.49-1.65,1.12-2.2.63-.56,1.39-.84,2.29-.85.78,0,1.37.17,1.75.54s.55.78.49,1.24c-.08.64-.38,1.1-.91,1.4-.53.3-1.1.45-1.72.45-.18,0-.37-.01-.56-.03-.19-.02-.35-.05-.49-.08s-.21-.05-.22-.05c0,.42.13.76.41,1.01.28.25.65.38,1.09.38.35,0,.68-.05.98-.16s.53-.21.71-.32c.17-.11.28-.16.33-.16Zm-2.08-3.25c-.36,0-.67.17-.92.51-.25.34-.41.74-.47,1.19.2.04.41.06.63.06.41,0,.76-.09,1.05-.27.28-.18.44-.42.47-.72.03-.21-.02-.4-.15-.55-.13-.15-.33-.22-.61-.22Z"/><path class="cls-1" d="m91.2,94.11s.02-.06.05-.14c.03-.08.06-.17.09-.27s.05-.2.06-.28c.02-.17,0-.31-.06-.41s-.16-.16-.32-.15c-.27.02-.52.23-.75.64-.23.41-.38.91-.46,1.49l-.28,2.25s0,.03-.02.04-.02.02-.03.02h-.02c-.21.07-.49.09-.83.09-.27,0-.56-.03-.86-.08-.02-.03-.03-.05-.03-.06l.51-3.85c.04-.33.02-.56-.06-.68-.08-.13-.2-.23-.38-.3-.06-.03-.09-.08-.09-.14.02-.15.17-.34.43-.56.26-.22.58-.33.94-.33.33,0,.58.11.74.32.16.21.24.51.22.89,0,.05,0,.12-.02.22s-.02.18-.03.24h.05c.19-.51.46-.91.8-1.21.34-.3.72-.45,1.13-.46.4,0,.7.13.91.39.21.26.28.6.23,1.02-.05.41-.23.77-.54,1.07-.31.3-.63.45-.98.45-.12,0-.21-.02-.29-.05s-.12-.08-.11-.16Z"/><path class="cls-1" d="m94.45,97.48c-.37,0-.64-.11-.83-.33s-.26-.53-.22-.93l.57-4.61s.02-.05.05-.06c.28-.05.56-.08.82-.08.34,0,.62.03.85.08.02.03.03.05.03.06l-.48,3.83c-.03.24-.02.43.02.58.05.15.1.24.16.29.06.05.16.1.29.15.06.03.09.08.08.14-.02.15-.15.33-.42.56-.26.23-.57.34-.93.34Zm.56-6.86c-.31,0-.56-.09-.76-.28-.2-.18-.28-.41-.25-.67.03-.26.17-.48.41-.67.25-.19.52-.28.83-.28s.57.09.77.28.28.41.25.67c-.03.26-.17.48-.41.67-.25.18-.53.28-.84.28Z"/><path class="cls-1" d="m96.68,97.26c.18-1.19.34-2.48.51-3.87.04-.33.02-.56-.05-.68-.07-.13-.2-.23-.39-.3-.05-.03-.08-.08-.08-.14.02-.15.16-.33.43-.56.27-.23.58-.34.94-.34.32,0,.57.09.74.28.17.19.25.44.25.75,0,.08,0,.21-.02.39h.03c.25-.46.58-.81.97-1.05.39-.24.78-.37,1.17-.37.48,0,.84.14,1.09.45s.34.75.27,1.34c-.05.49-.15,1.26-.29,2.3-.03.24-.02.43.02.57s.1.24.17.29c.07.05.16.1.28.14.06.03.09.08.08.14-.02.15-.16.34-.42.57-.26.23-.58.34-.94.34s-.65-.11-.84-.34-.26-.54-.21-.94l.32-2.67c.05-.34.02-.58-.08-.73-.1-.15-.24-.22-.43-.21-.28,0-.57.2-.86.59s-.47.86-.53,1.42l-.32,2.62s0,.03-.02.04c-.01.01-.02.02-.03.02h-.02c-.22.07-.5.09-.83.09-.27,0-.56-.03-.86-.08-.03-.03-.05-.05-.05-.06Z"/><path class="cls-1" d="m109.59,91.61l-.7,5.59c-.11.96-.45,1.71-1.01,2.27-.56.55-1.29.83-2.2.83-.41,0-.77-.07-1.09-.2-.32-.13-.57-.29-.74-.48-.17-.19-.29-.38-.37-.56-.08-.19-.11-.35-.1-.49,0-.09.04-.14.13-.14.05,0,.13.04.22.11s.2.16.31.25.28.17.51.25.49.12.77.12c.51,0,.92-.16,1.23-.48.31-.32.5-.72.55-1.21l.16-1.21h-.02c-.22.38-.51.67-.85.88-.34.21-.72.32-1.13.32-.68,0-1.2-.29-1.54-.87-.34-.58-.46-1.3-.34-2.16.1-.82.4-1.53.9-2.12.5-.59,1.1-.89,1.8-.89.38,0,.71.09.99.27.28.18.48.43.61.75h.03l.18-.82s.02-.05.06-.07c.28-.05.55-.07.8-.07.31,0,.57.02.78.07.04.02.06.04.06.07Zm-3.5,4.61c.34,0,.65-.18.92-.53.27-.35.43-.77.49-1.26.06-.51,0-.94-.17-1.3-.17-.36-.44-.55-.8-.55-.33,0-.62.17-.87.51-.25.34-.41.77-.48,1.3-.08.56-.03,1.01.15,1.34s.43.5.76.5Z"/></g></svg>