<svg xmlns="http://www.w3.org/2000/svg" xmlns:xlink="http://www.w3.org/1999/xlink" width="90" height="90" viewBox="0 0 90 90">
  <defs>
    <clipPath id="clip-path">
      <rect id="Rechteck_455" data-name="Rechteck 455" width="60.104" height="54.932" fill="none"/>
    </clipPath>
  </defs>
  <g id="favicon" transform="translate(-7188 269)">
    <rect id="Rechteck_458" data-name="Rechteck 458" width="90" height="90" rx="45" transform="translate(7188 -269)" fill="#254f81"/>
    <g id="Gruppe_1016" data-name="Gruppe 1016" transform="translate(7202.876 -251.386)">
      <g id="Gruppe_1014" data-name="Gruppe 1014" clip-path="url(#clip-path)">
        <path id="Pfad_446" data-name="Pfad 446" d="M28.879,20.551a11.15,11.15,0,0,1-7.018,2.363,7.864,7.864,0,0,1-7.491-5.766H35.945a14.363,14.363,0,1,0-3.528,6.942ZM17.2,7.483A7.266,7.266,0,0,1,21.789,5.9a7.433,7.433,0,0,1,4.656,1.583A8.19,8.19,0,0,1,29.3,11.666H14.369A8.24,8.24,0,0,1,17.2,7.483" transform="translate(-3.393 0)" fill="#fff"/>
        <path id="Pfad_447" data-name="Pfad 447" d="M67.3,0a14.294,14.294,0,0,0-9.181,3.321,17.777,17.777,0,0,1,3.034,5.757,8.071,8.071,0,0,1,1.563-1.6A7.436,7.436,0,0,1,67.371,5.9a7.266,7.266,0,0,1,4.584,1.583,8.017,8.017,0,0,1,2.139,2.527H74.1a5.227,5.227,0,0,1,.674,1.607c.006.016.013.032.018.049h0a8.88,8.88,0,0,1,.246,2.694,19.949,19.949,0,0,1-.242,2.788A7.866,7.866,0,0,1,67.3,22.912a11.151,11.151,0,0,1-7.018-2.362l-3.538,3.539A14.358,14.358,0,1,0,67.3,0" transform="translate(-25.664)" fill="#fff"/>
        <path id="Pfad_448" data-name="Pfad 448" d="M9.913,74.306H2.1A3.426,3.426,0,0,0,5.58,77.017a4.171,4.171,0,0,0,2.908-1.128l.91,1.662A5.842,5.842,0,0,1,5.461,78.9,5.2,5.2,0,0,1,0,73.692a5.094,5.094,0,0,1,5.125-5.2,4.714,4.714,0,0,1,4.808,5.025c0,.218,0,.535-.02.791M2.137,72.683H7.895A2.591,2.591,0,0,0,5.2,70.23a3.024,3.024,0,0,0-3.067,2.453" transform="translate(0 -30.977)" fill="#fff"/>
        <path id="Pfad_449" data-name="Pfad 449" d="M31.611,73.692a4.993,4.993,0,0,1-4.986,5.2A4.077,4.077,0,0,1,23.5,77.59v6.654H21.381V68.686h2.157L23.4,69.813h.079a4.134,4.134,0,0,1,3.146-1.325,4.993,4.993,0,0,1,4.986,5.2m-2.137,0a3.056,3.056,0,0,0-3.126-3.285A3.02,3.02,0,0,0,23.5,72.129v3.126a3.011,3.011,0,0,0,2.829,1.721,3.071,3.071,0,0,0,3.146-3.285" transform="translate(-9.67 -30.976)" fill="#fff"/>
        <path id="Pfad_450" data-name="Pfad 450" d="M43.343,61.768a1.454,1.454,0,0,1,2.908,0,1.448,1.448,0,0,1-1.464,1.464,1.432,1.432,0,0,1-1.444-1.464m.416,3.225h2.117V75.006H43.759Z" transform="translate(-19.604 -27.284)" fill="#fff"/>
        <path id="Pfad_451" data-name="Pfad 451" d="M52.048,73.712a5.586,5.586,0,0,1,8.864-4.155l-.95,1.741a3.666,3.666,0,0,0-2.513-.891,3.225,3.225,0,0,0-3.3,3.3,3.154,3.154,0,0,0,3.285,3.265,3.95,3.95,0,0,0,2.612-.851l.87,1.682A5.121,5.121,0,0,1,57.45,78.9a5.1,5.1,0,0,1-5.4-5.184" transform="translate(-23.541 -30.976)" fill="#fff"/>
        <path id="Pfad_452" data-name="Pfad 452" d="M70.145,73.728a5.314,5.314,0,1,1,5.3,5.184,5.158,5.158,0,0,1-5.3-5.184m8.488,0a3.177,3.177,0,1,0-3.185,3.265,3.211,3.211,0,0,0,3.185-3.265" transform="translate(-31.726 -30.993)" fill="#fff"/>
        <path id="Pfad_453" data-name="Pfad 453" d="M102.384,72.8v5.9h-2.1V72.9a2.223,2.223,0,0,0-2.236-2.513,2.649,2.649,0,0,0-2.473,1.781V78.7h-2.1V68.686h2.156L95.5,69.794h.059a3.623,3.623,0,0,1,2.908-1.306c2.414,0,3.918,1.722,3.918,4.313" transform="translate(-42.28 -30.976)" fill="#fff"/>
        <path id="Pfad_454" data-name="Pfad 454" d="M48.6,93.705q.057,0,.038.069a.592.592,0,0,1-.117.249,1.936,1.936,0,0,1-.28.308,1.506,1.506,0,0,1-.466.274,1.663,1.663,0,0,1-.611.113,1.441,1.441,0,0,1-1.137-.45,1.476,1.476,0,0,1-.312-1.206,1.839,1.839,0,0,1,1.864-1.669,1.33,1.33,0,0,1,.961.3.767.767,0,0,1,.268.68.964.964,0,0,1-.5.768,1.888,1.888,0,0,1-.945.245,2.5,2.5,0,0,1-.305-.019c-.1-.013-.192-.027-.268-.044s-.116-.025-.119-.025a.686.686,0,0,0,.227.554.864.864,0,0,0,.6.208,1.578,1.578,0,0,0,.535-.088,2.074,2.074,0,0,0,.387-.176.546.546,0,0,1,.18-.088m-1.14-1.782a.612.612,0,0,0-.5.28,1.383,1.383,0,0,0-.258.652,1.846,1.846,0,0,0,.346.031,1.047,1.047,0,0,0,.573-.148.516.516,0,0,0,.259-.394.357.357,0,0,0-.082-.3.42.42,0,0,0-.334-.123" transform="translate(-20.669 -41.336)" fill="#fff"/>
        <path id="Pfad_455" data-name="Pfad 455" d="M51.973,94.59q.144-.976.277-2.122a.666.666,0,0,0-.028-.375.418.418,0,0,0-.211-.167.081.081,0,0,1-.044-.076c.009-.079.086-.181.233-.305a.776.776,0,0,1,.516-.186.515.515,0,0,1,.4.154.6.6,0,0,1,.138.412c0,.042,0,.113-.013.214h.019a1.516,1.516,0,0,1,.532-.576,1.271,1.271,0,0,1,.64-.2.71.71,0,0,1,.6.246.951.951,0,0,1,.148.731q-.045.4-.161,1.259a.757.757,0,0,0,.013.315.321.321,0,0,0,.091.16.611.611,0,0,0,.154.078.07.07,0,0,1,.044.076.572.572,0,0,1-.23.312.767.767,0,0,1-.514.186.574.574,0,0,1-.462-.186A.634.634,0,0,1,54,94.023l.174-1.46a.6.6,0,0,0-.044-.4.249.249,0,0,0-.233-.117.657.657,0,0,0-.469.324,1.608,1.608,0,0,0-.293.778l-.176,1.436a.029.029,0,0,1-.009.022c-.007.006-.012.009-.016.009l-.013.006a1.954,1.954,0,0,1-.454.044A2.728,2.728,0,0,1,52,94.622c-.017-.016-.025-.027-.025-.031" transform="translate(-23.504 -41.321)" fill="#fff"/>
        <path id="Pfad_456" data-name="Pfad 456" d="M62.057,91.518l-.384,3.061a2.025,2.025,0,0,1-.551,1.241,1.638,1.638,0,0,1-1.207.454,1.586,1.586,0,0,1-.6-.107,1.084,1.084,0,0,1-.4-.261,1.144,1.144,0,0,1-.2-.309.54.54,0,0,1-.053-.268c0-.05.023-.076.069-.076a.233.233,0,0,1,.123.063l.17.136a.95.95,0,0,0,.28.135,1.341,1.341,0,0,0,.422.063.906.906,0,0,0,.674-.261,1.084,1.084,0,0,0,.3-.664l.09-.663h-.013a1.369,1.369,0,0,1-.466.483,1.162,1.162,0,0,1-.617.174.92.92,0,0,1-.844-.479,1.8,1.8,0,0,1-.189-1.184,2.166,2.166,0,0,1,.495-1.162,1.253,1.253,0,0,1,.985-.488.981.981,0,0,1,.543.148.852.852,0,0,1,.333.413h.019l.1-.447q0-.025.031-.038a2.73,2.73,0,0,1,.439-.038,2,2,0,0,1,.426.038c.021.008.031.021.031.037m-1.915,2.526a.629.629,0,0,0,.5-.29,1.409,1.409,0,0,0,.271-.693,1.284,1.284,0,0,0-.091-.715.462.462,0,0,0-.438-.3.6.6,0,0,0-.478.277,1.484,1.484,0,0,0-.265.711,1.215,1.215,0,0,0,.082.734.453.453,0,0,0,.416.274" transform="translate(-26.52 -41.342)" fill="#fff"/>
        <path id="Pfad_457" data-name="Pfad 457" d="M66.061,93.514a.567.567,0,0,1-.456-.182.64.64,0,0,1-.119-.51L65.8,90.3a.03.03,0,0,1,.025-.032,2.437,2.437,0,0,1,.451-.044,2.036,2.036,0,0,1,.463.044.09.09,0,0,1,.019.031l-.261,2.1a.749.749,0,0,0,.013.315.313.313,0,0,0,.088.158.733.733,0,0,0,.157.082.07.07,0,0,1,.044.076q-.012.119-.229.306a.759.759,0,0,1-.51.186m.307-3.759a.588.588,0,0,1-.416-.151.408.408,0,0,1-.139-.365.537.537,0,0,1,.227-.368.726.726,0,0,1,.453-.154.59.59,0,0,1,.422.154.415.415,0,0,1,.139.368.526.526,0,0,1-.227.365.745.745,0,0,1-.46.151" transform="translate(-29.615 -40.125)" fill="#fff"/>
        <path id="Pfad_458" data-name="Pfad 458" d="M68.771,94.59q.145-.976.277-2.122a.666.666,0,0,0-.028-.375.419.419,0,0,0-.211-.167.08.08,0,0,1-.044-.076c.008-.079.085-.181.233-.305a.776.776,0,0,1,.516-.186.515.515,0,0,1,.4.154.6.6,0,0,1,.139.412c0,.042,0,.113-.013.214h.019a1.513,1.513,0,0,1,.532-.576,1.268,1.268,0,0,1,.64-.2.71.71,0,0,1,.6.246.948.948,0,0,1,.148.731q-.045.4-.161,1.259a.748.748,0,0,0,.013.315.325.325,0,0,0,.091.16.611.611,0,0,0,.154.078.07.07,0,0,1,.044.076.569.569,0,0,1-.23.312.768.768,0,0,1-.515.186.574.574,0,0,1-.462-.186.63.63,0,0,1-.113-.513l.174-1.46a.6.6,0,0,0-.044-.4.25.25,0,0,0-.233-.117.656.656,0,0,0-.469.324,1.608,1.608,0,0,0-.293.778l-.176,1.436a.032.032,0,0,1-.009.022c-.007.006-.012.009-.016.009l-.013.006a1.957,1.957,0,0,1-.454.044,2.727,2.727,0,0,1-.472-.044c-.017-.016-.025-.027-.025-.031" transform="translate(-31.102 -41.321)" fill="#fff"/>
        <path id="Pfad_459" data-name="Pfad 459" d="M78.286,93.705q.057,0,.038.069a.592.592,0,0,1-.117.249,1.935,1.935,0,0,1-.28.308,1.506,1.506,0,0,1-.466.274,1.663,1.663,0,0,1-.611.113,1.441,1.441,0,0,1-1.137-.45,1.476,1.476,0,0,1-.312-1.206,1.839,1.839,0,0,1,1.864-1.669,1.33,1.33,0,0,1,.961.3.767.767,0,0,1,.268.68.964.964,0,0,1-.5.768,1.888,1.888,0,0,1-.945.245,2.5,2.5,0,0,1-.305-.019c-.1-.013-.192-.027-.268-.044s-.116-.025-.119-.025a.686.686,0,0,0,.227.554.864.864,0,0,0,.6.208,1.579,1.579,0,0,0,.535-.088,2.074,2.074,0,0,0,.387-.176.546.546,0,0,1,.18-.088m-1.14-1.782a.612.612,0,0,0-.5.28,1.383,1.383,0,0,0-.258.652,1.846,1.846,0,0,0,.346.031,1.047,1.047,0,0,0,.573-.148.516.516,0,0,0,.259-.394.357.357,0,0,0-.082-.3.42.42,0,0,0-.334-.123" transform="translate(-34.096 -41.336)" fill="#fff"/>
        <path id="Pfad_460" data-name="Pfad 460" d="M84.357,93.705q.057,0,.038.069a.592.592,0,0,1-.117.249,1.936,1.936,0,0,1-.28.308,1.506,1.506,0,0,1-.466.274,1.663,1.663,0,0,1-.611.113,1.441,1.441,0,0,1-1.137-.45,1.476,1.476,0,0,1-.312-1.206,1.839,1.839,0,0,1,1.864-1.669,1.33,1.33,0,0,1,.961.3.767.767,0,0,1,.268.68.964.964,0,0,1-.5.768,1.888,1.888,0,0,1-.945.245,2.5,2.5,0,0,1-.305-.019c-.1-.013-.192-.027-.268-.044s-.116-.025-.119-.025a.686.686,0,0,0,.227.554.864.864,0,0,0,.6.208,1.576,1.576,0,0,0,.535-.088,2.074,2.074,0,0,0,.387-.176.546.546,0,0,1,.18-.088m-1.14-1.782a.612.612,0,0,0-.5.28,1.383,1.383,0,0,0-.258.652,1.846,1.846,0,0,0,.346.031,1.047,1.047,0,0,0,.573-.148.516.516,0,0,0,.259-.394.359.359,0,0,0-.082-.3.42.42,0,0,0-.334-.123" transform="translate(-36.842 -41.336)" fill="#fff"/>
        <path id="Pfad_461" data-name="Pfad 461" d="M89.626,92.875a.347.347,0,0,1,.025-.076c.017-.042.033-.091.05-.148a.816.816,0,0,0,.032-.154.4.4,0,0,0-.035-.227.168.168,0,0,0-.173-.082q-.22.012-.409.352a2.285,2.285,0,0,0-.252.819l-.151,1.235a.031.031,0,0,1-.009.022.026.026,0,0,1-.016.009l-.013.007a1.944,1.944,0,0,1-.454.044,2.778,2.778,0,0,1-.472-.044.1.1,0,0,1-.019-.032l.277-2.109a.647.647,0,0,0-.031-.375.437.437,0,0,0-.208-.167.081.081,0,0,1-.05-.076.6.6,0,0,1,.236-.309.774.774,0,0,1,.513-.182.484.484,0,0,1,.406.173.724.724,0,0,1,.123.488c0,.025,0,.066-.009.123s-.012.1-.016.129H89a1.609,1.609,0,0,1,.441-.661.954.954,0,0,1,.617-.252.6.6,0,0,1,.5.214.719.719,0,0,1,.126.56.976.976,0,0,1-.3.586.763.763,0,0,1-.535.245.45.45,0,0,1-.161-.025.08.08,0,0,1-.06-.088" transform="translate(-39.674 -41.331)" fill="#fff"/>
        <path id="Pfad_462" data-name="Pfad 462" d="M93.966,93.514a.567.567,0,0,1-.456-.182.64.64,0,0,1-.119-.51l.315-2.525a.03.03,0,0,1,.025-.032,2.437,2.437,0,0,1,.451-.044,2.036,2.036,0,0,1,.463.044.09.09,0,0,1,.019.031l-.261,2.1a.748.748,0,0,0,.013.315.313.313,0,0,0,.088.158.733.733,0,0,0,.157.082.07.07,0,0,1,.044.076q-.012.119-.229.306a.759.759,0,0,1-.51.186m.307-3.759a.588.588,0,0,1-.416-.151.41.41,0,0,1-.139-.365.537.537,0,0,1,.227-.368.726.726,0,0,1,.453-.154.59.59,0,0,1,.422.154.414.414,0,0,1,.139.368.526.526,0,0,1-.227.365.745.745,0,0,1-.46.151" transform="translate(-42.236 -40.125)" fill="#fff"/>
        <path id="Pfad_463" data-name="Pfad 463" d="M96.677,94.59q.145-.976.277-2.122a.666.666,0,0,0-.028-.375.419.419,0,0,0-.211-.167.081.081,0,0,1-.044-.076c.009-.079.086-.181.233-.305a.776.776,0,0,1,.516-.186.515.515,0,0,1,.4.154.6.6,0,0,1,.138.412c0,.042,0,.113-.012.214h.019a1.513,1.513,0,0,1,.532-.576,1.268,1.268,0,0,1,.64-.2.71.71,0,0,1,.6.246.949.949,0,0,1,.148.731q-.045.4-.161,1.259a.748.748,0,0,0,.013.315.325.325,0,0,0,.091.16.611.611,0,0,0,.154.078.07.07,0,0,1,.044.076.57.57,0,0,1-.23.312.769.769,0,0,1-.515.186.574.574,0,0,1-.462-.186.632.632,0,0,1-.114-.513l.174-1.46a.6.6,0,0,0-.044-.4.25.25,0,0,0-.233-.117.656.656,0,0,0-.469.324,1.607,1.607,0,0,0-.293.778l-.176,1.436a.032.032,0,0,1-.009.022c-.007.006-.012.009-.016.009l-.013.006a1.957,1.957,0,0,1-.454.044,2.728,2.728,0,0,1-.472-.044c-.017-.016-.025-.027-.025-.031" transform="translate(-43.723 -41.321)" fill="#fff"/>
        <path id="Pfad_464" data-name="Pfad 464" d="M106.76,91.518l-.384,3.061a2.025,2.025,0,0,1-.551,1.241,1.638,1.638,0,0,1-1.207.454,1.586,1.586,0,0,1-.6-.107,1.08,1.08,0,0,1-.4-.261,1.144,1.144,0,0,1-.2-.309.547.547,0,0,1-.054-.268c0-.05.023-.076.07-.076a.233.233,0,0,1,.123.063l.17.136a.943.943,0,0,0,.28.135,1.341,1.341,0,0,0,.422.063.906.906,0,0,0,.674-.261,1.084,1.084,0,0,0,.3-.664l.09-.663h-.013a1.369,1.369,0,0,1-.466.483,1.162,1.162,0,0,1-.617.174.92.92,0,0,1-.844-.479,1.8,1.8,0,0,1-.189-1.184,2.166,2.166,0,0,1,.495-1.162,1.253,1.253,0,0,1,.985-.488.982.982,0,0,1,.543.148.852.852,0,0,1,.333.413h.019l.1-.447q0-.025.031-.038a2.73,2.73,0,0,1,.439-.038,2,2,0,0,1,.426.038c.021.008.031.021.031.037m-1.915,2.526a.629.629,0,0,0,.5-.29,1.409,1.409,0,0,0,.271-.693,1.284,1.284,0,0,0-.091-.715.461.461,0,0,0-.438-.3.594.594,0,0,0-.478.277,1.484,1.484,0,0,0-.265.711,1.215,1.215,0,0,0,.082.734.453.453,0,0,0,.416.274" transform="translate(-46.738 -41.342)" fill="#fff"/>
      </g>
    </g>
  </g>
</svg>
